<svg width="190" height="60" viewBox="0 0 190 60" fill="none" xmlns="http://www.w3.org/2000/svg">
<path d="M41 36H41.01M37 39H45C45.5304 39 46.0391 38.7893 46.4142 38.4142C46.7893 38.0391 47 37.5304 47 37V23C47 22.4696 46.7893 21.9609 46.4142 21.5858C46.0391 21.2107 45.5304 21 45 21H37C36.4696 21 35.9609 21.2107 35.5858 21.5858C35.2107 21.9609 35 22.4696 35 23V37C35 37.5304 35.2107 38.0391 35.5858 38.4142C35.9609 38.7893 36.4696 39 37 39Z" stroke="black" stroke-width="2" stroke-linecap="round" stroke-linejoin="round"/>
<path d="M80 25C80.5304 25 81.0391 25.2107 81.4142 25.5858C81.7893 25.9609 82 26.4696 82 27M86 27C86.0003 27.9372 85.781 28.8614 85.3598 29.6985C84.9386 30.5357 84.3271 31.2626 83.5744 31.8209C82.8216 32.3792 81.9486 32.7534 81.0252 32.9135C80.1018 33.0736 79.1538 33.0152 78.257 32.743L76 35H74V37H72V39H69C68.7348 39 68.4804 38.8946 68.2929 38.7071C68.1054 38.5196 68 38.2652 68 38V35.414C68.0001 35.1488 68.1055 34.8945 68.293 34.707L74.257 28.743C74.0074 27.918 73.9386 27.0489 74.055 26.1949C74.1715 25.3409 74.4706 24.5221 74.932 23.794C75.3934 23.066 76.0062 22.4459 76.7287 21.976C77.4512 21.5061 78.2665 21.1973 79.1191 21.0708C79.9716 20.9443 80.8415 21.0029 81.6693 21.2427C82.4972 21.4825 83.2637 21.8978 83.9166 22.4605C84.5696 23.0231 85.0936 23.7198 85.4531 24.5031C85.8127 25.2865 85.9992 26.1381 86 27V27Z" stroke="black" stroke-width="2" stroke-linecap="round" stroke-linejoin="round"/>
<path d="M146 25H152M152 35V32M149 35H149.01M146 35H146.01M146 32H146.01M149 32H149.01M152 29H152.01M149 29H149.01M146 29H146.01M144 39H154C154.53 39 155.039 38.7893 155.414 38.4142C155.789 38.0391 156 37.5304 156 37V23C156 22.4696 155.789 21.9609 155.414 21.5858C155.039 21.2107 154.53 21 154 21H144C143.47 21 142.961 21.2107 142.586 21.5858C142.211 21.9609 142 22.4696 142 23V37C142 37.5304 142.211 38.0391 142.586 38.4142C142.961 38.7893 143.47 39 144 39Z" stroke="black" stroke-width="2" stroke-linecap="round" stroke-linejoin="round"/>
<path d="M104 27C104 26.4696 104.211 25.9609 104.586 25.5858C104.961 25.2107 105.47 25 106 25H106.93C107.259 25 107.583 24.9188 107.874 24.7636C108.164 24.6083 108.411 24.3838 108.594 24.11L109.406 22.89C109.589 22.6162 109.836 22.3917 110.126 22.2364C110.417 22.0812 110.741 22 111.07 22H114.93C115.259 22 115.583 22.0812 115.874 22.2364C116.164 22.3917 116.411 22.6162 116.594 22.89L117.406 24.11C117.589 24.3838 117.836 24.6083 118.126 24.7636C118.417 24.9188 118.741 25 119.07 25H120C120.53 25 121.039 25.2107 121.414 25.5858C121.789 25.9609 122 26.4696 122 27V36C122 36.5304 121.789 37.0391 121.414 37.4142C121.039 37.7893 120.53 38 120 38H106C105.47 38 104.961 37.7893 104.586 37.4142C104.211 37.0391 104 36.5304 104 36V27Z" stroke="black" stroke-width="2" stroke-linecap="round" stroke-linejoin="round"/>
<path d="M116 31C116 31.7956 115.684 32.5587 115.121 33.1213C114.559 33.6839 113.796 34 113 34C112.204 34 111.441 33.6839 110.879 33.1213C110.316 32.5587 110 31.7956 110 31C110 30.2044 110.316 29.4413 110.879 28.8787C111.441 28.3161 112.204 28 113 28C113.796 28 114.559 28.3161 115.121 28.8787C115.684 29.4413 116 30.2044 116 31V31Z" stroke="black" stroke-width="2" stroke-linecap="round" stroke-linejoin="round"/>
<rect x="1" y="1" width="188" height="58" stroke="black" stroke-width="2"/>
</svg>
